<svg viewBox="0 0 24 24" role="img" focusable="false" xmlns="http://www.w3.org/2000/svg">
  <path d="M12 3a1 1 0 0 1 1 1v1a1 1 0 1 1-2 0V4a1 1 0 0 1 1-1Zm6.36 2.64a1 1 0 0 1 1.41 1.41l-.7.7a1 1 0 1 1-1.41-1.41l.7-.7ZM21 11a1 1 0 1 1 0 2h-1a1 1 0 1 1 0-2h1Zm-2.64 6.36.7.7a1 1 0 0 1-1.41 1.41l-.7-.7a1 1 0 1 1 1.41-1.41ZM13 19v1a1 1 0 1 1-2 0v-1a1 1 0 1 1 2 0Zm-6.36-1.64a1 1 0 0 1 0 1.41l-.7.7a1 1 0 1 1-1.41-1.41l.7-.7a1 1 0 0 1 1.41 0ZM5 11a1 1 0 1 1 0 2H4a1 1 0 1 1 0-2h1Zm1.64-4.36-.7-.7a1 1 0 0 1 1.41-1.41l.7.7a1 1 0 0 1-1.41 1.41ZM12 8a4 4 0 1 1 0 8 4 4 0 0 1 0-8Z" fill="currentColor"/>
</svg>
